<svg id="visual" viewBox="0 0 900 600" width="900" height="600" xmlns="http://www.w3.org/2000/svg" xmlns:xlink="http://www.w3.org/1999/xlink" version="1.1"><rect x="0" y="0" width="900" height="600" fill="#001220"></rect><defs><linearGradient id="grad1_0" x1="33.3%" y1="0%" x2="100%" y2="100%"><stop offset="20%" stop-color="#fbae3c" stop-opacity="1"></stop><stop offset="80%" stop-color="#fbae3c" stop-opacity="1"></stop></linearGradient></defs><defs><linearGradient id="grad1_1" x1="33.3%" y1="0%" x2="100%" y2="100%"><stop offset="20%" stop-color="#fbae3c" stop-opacity="1"></stop><stop offset="80%" stop-color="#96446e" stop-opacity="1"></stop></linearGradient></defs><defs><linearGradient id="grad1_2" x1="33.3%" y1="0%" x2="100%" y2="100%"><stop offset="20%" stop-color="#001220" stop-opacity="1"></stop><stop offset="80%" stop-color="#96446e" stop-opacity="1"></stop></linearGradient></defs><defs><linearGradient id="grad2_0" x1="0%" y1="0%" x2="66.7%" y2="100%"><stop offset="20%" stop-color="#fbae3c" stop-opacity="1"></stop><stop offset="80%" stop-color="#fbae3c" stop-opacity="1"></stop></linearGradient></defs><defs><linearGradient id="grad2_1" x1="0%" y1="0%" x2="66.7%" y2="100%"><stop offset="20%" stop-color="#96446e" stop-opacity="1"></stop><stop offset="80%" stop-color="#fbae3c" stop-opacity="1"></stop></linearGradient></defs><defs><linearGradient id="grad2_2" x1="0%" y1="0%" x2="66.7%" y2="100%"><stop offset="20%" stop-color="#96446e" stop-opacity="1"></stop><stop offset="80%" stop-color="#001220" stop-opacity="1"></stop></linearGradient></defs><g transform="translate(900, 0)"><path d="M0 297.5C-45.6 279.1 -91.2 260.6 -137.5 238.2C-183.8 215.7 -230.8 189.1 -257.6 148.7C-284.4 108.4 -290.9 54.2 -297.5 0L0 0Z" fill="#3d3056"></path><path d="M0 198.3C-30.4 186 -60.8 173.8 -91.7 158.8C-122.5 143.8 -153.9 126.1 -171.7 99.2C-189.6 72.2 -193.9 36.1 -198.3 0L0 0Z" fill="#e1685e"></path><path d="M0 99.2C-15.2 93 -30.4 86.9 -45.8 79.4C-61.3 71.9 -76.9 63 -85.9 49.6C-94.8 36.1 -97 18.1 -99.2 0L0 0Z" fill="#fbae3c"></path></g><g transform="translate(0, 600)"><path d="M0 -297.5C56.1 -292.1 112.3 -286.7 148.7 -257.6C185.2 -228.6 201.9 -175.9 223.4 -129C244.9 -82.1 271.2 -41.1 297.5 0L0 0Z" fill="#3d3056"></path><path d="M0 -198.3C37.4 -194.7 74.9 -191.1 99.2 -171.7C123.5 -152.4 134.6 -117.2 149 -86C163.3 -54.8 180.8 -27.4 198.3 0L0 0Z" fill="#e1685e"></path><path d="M0 -99.2C18.7 -97.4 37.4 -95.6 49.6 -85.9C61.7 -76.2 67.3 -58.6 74.5 -43C81.6 -27.4 90.4 -13.7 99.2 0L0 0Z" fill="#fbae3c"></path></g></svg>